Coordinates
version=1
nRows=8
nColumns=34
inDegrees=yes

Units are S.I. units (second, meters, Newtons, ...)
If the header above contains a line with 'inDegrees', this indicates whether rotational values are in degrees (yes) or radians (no).

endheader
time	pelvis_tilt	pelvis_list	pelvis_rotation	pelvis_tx	pelvis_ty	pelvis_tz	hip_flexion_r	hip_adduction_r	hip_rotation_r	knee_angle_r	ankle_angle_r	subtalar_angle_r	mtp_angle_r	hip_flexion_l	hip_adduction_l	hip_rotation_l	knee_angle_l	ankle_angle_l	subtalar_angle_l	mtp_angle_l	lumbar_extension	lumbar_bending	lumbar_rotation	arm_flex_r	arm_add_r	arm_rot_r	elbow_flex_r	pro_sup_r	arm_flex_l	arm_add_l	arm_rot_l	elbow_flex_l	pro_sup_l
      1.18333330	     -9.66939745	     -1.44300509	      7.07929829	     -0.04875001	      1.18023031	     -0.01116599	     10.10689456	      1.53029628	      2.79489252	      6.05108399	      2.61059112	    -18.64634580	      0.00000000	     10.46553960	     -0.82661924	     -5.33372662	      6.00198097	      1.80284549	    -12.30260043	      0.00000000	    -10.44106036	     -0.87087911	     -2.81133787	    -10.80840060	    -13.19700748	      6.36597806	     28.33008989	     64.97852780	    -12.12844640	    -14.01234544	     17.90269731	     30.20463926	     68.20994986
      1.20000000	     -9.51097218	     -1.60639921	      7.22913901	     -0.04905927	      1.17834468	     -0.01196871	      9.86503822	      1.65640058	      2.51083094	      6.12311302	      2.74273935	    -18.72024381	      0.00000000	     10.61437363	     -0.98797107	     -5.13439011	      6.58435894	      1.91467819	    -12.40970700	      0.00000000	    -10.86684042	     -0.43789511	     -2.53553678	    -11.04261360	    -13.52718282	      6.99068288	     28.51088797	     65.03033754	    -11.84001682	    -13.88501433	     18.01898294	     31.68300009	     68.06393682
      1.21666670	     -9.50381355	     -1.55098948	      7.22087133	     -0.04850560	      1.18052763	     -0.01217307	      9.67995369	      1.53205032	      2.46481878	      6.16527030	      2.79507466	    -18.79960191	      0.00000000	     10.58772912	     -0.89262654	     -5.18082314	      6.64261944	      1.85592825	    -12.41479882	      0.00000000	    -10.79417608	     -0.41254510	     -2.60372252	    -11.13951930	    -13.50332948	      7.12674008	     28.52584330	     65.04113583	    -11.77177061	    -13.54401596	     18.10138426	     31.94138279	     68.04308569
      1.23333330	     -9.48162276	     -1.55777248	      7.17856873	     -0.04885667	      1.18134336	     -0.01205521	      9.52361367	      1.50109199	      2.33317844	      6.19977740	      2.82114631	    -18.93236598	      0.00000000	     10.57035366	     -0.88101223	     -5.24180057	      6.69033056	      1.80911303	    -12.43605626	      0.00000000	    -10.73244725	     -0.35194110	     -2.64769817	    -11.16883421	    -13.46022793	      7.27635190	     28.54346783	     65.05855704	    -11.57073846	    -13.26240411	     18.16212976	     32.21263233	     68.02425491
      1.25000000	     -9.48119102	     -1.55797135	      7.16898336	     -0.05005434	      1.18021139	     -0.01160925	      9.45948117	      1.50131585	      2.17586360	      6.16078341	      2.86326169	    -19.11772714	      0.00000000	     10.54583609	     -0.88542945	     -5.31161232	      6.78423596	      1.79774339	    -12.49984781	      0.00000000	    -10.74137522	     -0.29313458	     -2.67509261	    -11.13046639	    -13.36233096	      7.47919760	     28.58428127	     65.08661334	    -11.28170386	    -13.03169006	     18.22869535	     32.52063272	     68.00345752
      1.26666670	     -9.03674555	     -1.48476981	      7.16257585	     -0.04927256	      1.18320738	     -0.01139391	      8.81177922	      1.51160647	      2.50275818	      5.93430545	      2.10768819	    -20.44438877	      0.00000000	      9.99555338	     -0.86758283	     -5.11878459	      6.72544323	      1.36433427	    -13.01456565	      0.00000000	    -11.62998431	     -0.31346408	     -2.85139789	    -10.62587319	    -14.04709589	     12.05697999	     28.81277037	     65.55541803	    -11.38979438	    -13.72104198	     19.70835134	     34.92269153	     67.23578539
      1.28333330	     -9.06968607	     -1.46822000	      7.12468754	     -0.05052565	      1.18437082	     -0.01119113	      8.81710432	      1.49579938	      2.40110724	      5.92440159	      2.09059596	    -20.47397721	      0.00000000	     10.03592011	     -0.84760182	     -5.12135634	      6.73665254	      1.40013511	    -13.02918782	      0.00000000	    -11.58173031	     -0.27982036	     -2.90474216	    -10.50632052	    -13.83459625	     12.17162869	     28.83858432	     65.55152414	    -11.11909162	    -13.44692501	     19.73710191	     35.02543679	     67.20749339
      1.30000000	     -9.08801806	     -1.46310812	      7.20693808	     -0.05064868	      1.18351104	     -0.01081200	      8.83194793	      1.48563690	      2.06862378	      5.87075835	      1.85610925	    -20.58172509	      0.00000000	     10.20809760	     -0.86572530	     -5.13650274	      7.06130646	      1.36546665	    -13.14178457	      0.00000000	    -11.80626225	     -0.22053127	     -2.88210149	    -10.31161080	    -13.68615991	     12.67129418	     28.70692393	     65.54261040	    -10.60313302	    -13.36947250	     19.77849587	     35.15440244	     67.07263055
